<svg xmlns="http://www.w3.org/2000/svg" version="1.1" xmlns:xlink="http://www.w3.org/1999/xlink" xmlns:svgjs="http://svgjs.dev/svgjs" width="1000" height="239" viewBox="0 0 1000 239"><g transform="matrix(1,0,0,1,-0.6060606060606233,0.14376599868784012)"><svg xmlns="http://www.w3.org/2000/svg" version="1.1" xmlns:xlink="http://www.w3.org/1999/xlink" xmlns:svgjs="http://svgjs.com/svgjs" viewBox="0 0 396 95" data-background-color="#333366" preserveAspectRatio="xMidYMid meet" height="239" width="1000"><defs></defs><g id="tight-bounds" transform="matrix(1,0,0,1,0.2400000000000091,-0.05714548064997871)"><svg viewBox="0 0 395.52 95.11429096129997" height="95.11429096129997" width="395.52"><g><svg viewBox="0 0 395.52 95.11429096129997" height="95.11429096129997" width="395.52"><g><svg viewBox="0 0 566.4532662030492 136.22016782366387" height="95.11429096129997" width="395.52"><g><rect width="5.560279984778193" height="99.06025228855438" x="150.81727945183604" y="18.579957767554745" fill="#ffff33" opacity="1" stroke-width="0" stroke="transparent" fill-opacity="1" class="rect-borderrectangle-0" data-fill-palette-color="primary" rx="1%" id="borderrectangle-0" data-palette-color="#ffff33"></rect></g><g transform="matrix(1,0,0,1,170.9332662030493,18.826376305585967)"><svg viewBox="0 0 395.5199999999999 98.56741521249194" height="98.56741521249194" width="395.5199999999999"><g><svg viewBox="0 0 395.5199999999999 98.56741521249194" height="98.56741521249194" width="395.5199999999999"><g><svg viewBox="0 0 395.5199999999999 61.65686798503473" height="61.65686798503473" width="395.5199999999999"><g transform="matrix(1,0,0,1,0,0)"><svg width="395.5199999999999" viewBox="1.55 -43.35 279.67 43.75" height="61.65686798503473" data-palette-color="#ffff33"><g class="undefined-text-0" data-fill-palette-color="primary" id="text-0"><path d="M11.9 0.4Q7.2 0.4 4.38-2.55 1.55-5.5 1.55-10.65L1.55-10.65 1.55-30.45Q1.55-36.85 4.1-40.1 6.65-43.35 12.1-43.35L12.1-43.35Q16.85-43.35 19.75-40.75 22.65-38.15 22.65-33.25L22.65-33.25 22.65-25.85 14.1-25.85 14.1-32.2Q14.1-34.05 13.65-34.75 13.2-35.45 12.1-35.45L12.1-35.45Q10.95-35.45 10.53-34.65 10.1-33.85 10.1-32.3L10.1-32.3 10.1-10.75Q10.1-9.05 10.6-8.28 11.1-7.5 12.1-7.5L12.1-7.5Q14.1-7.5 14.1-10.75L14.1-10.75 14.1-18.5 22.75-18.5 22.75-10.4Q22.75 0.4 11.9 0.4L11.9 0.4ZM38.9 0L30.8 0 30.8-14.15 23.95-42.95 32.45-42.95 34.85-28.4 37.25-42.95 45.75-42.95 38.9-14.15 38.9 0ZM47.9 0L47.9-42.95 59.55-42.95Q64.25-42.95 66.37-40.65 68.5-38.35 68.5-33.15L68.5-33.15 68.5-31.25Q68.5-25.1 64.09-23.9L64.09-23.9Q66.8-23.2 67.9-20.65 69-18.1 69-13.9L69-13.9Q69-7.05 66.95-3.53 64.9 0 59.55 0L59.55 0 47.9 0ZM56.3-26.8L58.05-26.8Q59.15-26.8 59.55-27.63 59.95-28.45 59.95-29.95L59.95-29.95 59.95-34.25Q59.95-36.35 58.1-36.35L58.1-36.35 56.3-36.35 56.3-26.8ZM57.15-7.55Q60.5-7.55 60.5-10.75L60.5-10.75 60.5-16.1Q60.5-18.05 59.92-19.05 59.35-20.05 57.9-20.05L57.9-20.05 56.3-20.05 56.3-7.6 57.15-7.55ZM89.59 0L71.84 0 71.84-42.95 89.04-42.95 89.04-34.65 80.59-34.65 80.59-26.3 88.69-26.3 88.69-18.2 80.59-18.2 80.59-8.35 89.59-8.35 89.59 0ZM92.44 0L92.44-42.95 105.64-42.95Q108.79-42.95 110.52-41.53 112.24-40.1 112.84-37.52 113.44-34.95 113.44-30.95L113.44-30.95Q113.44-27.3 112.49-25.25 111.54-23.2 109.19-22.4L109.19-22.4Q111.14-22 112.02-20.45 112.89-18.9 112.89-16.25L112.89-16.25 112.79 0 104.39 0 104.39-16.8Q104.39-18.6 103.69-19.1 102.99-19.6 101.14-19.6L101.14-19.6 101.14 0 92.44 0ZM101.19-27.05L103.24-27.05Q105.04-27.05 105.04-30.95L105.04-30.95Q105.04-32.65 104.89-33.5 104.74-34.35 104.34-34.68 103.94-35 103.19-35L103.19-35 101.19-35 101.19-27.05Z" fill="#ffff33" data-fill-palette-color="primary"></path><path d="M122.54 0L114.19 0 118.34-42.95 132.89-42.95 136.99 0 128.84 0 128.24-6.95 123.04-6.95 122.54 0ZM125.29-35.65L123.69-13.8 127.59-13.8 125.69-35.65 125.29-35.65ZM157.04 0L139.59 0 139.59-42.95 148.19-42.95 148.19-7.3 157.04-7.3 157.04 0ZM176.89 0L159.43 0 159.43-42.95 168.03-42.95 168.03-7.3 176.89-7.3 176.89 0ZM187.18 0L178.88 0 178.88-42.95 187.18-42.95 187.18 0ZM197.83 0L189.48 0 193.63-42.95 208.18-42.95 212.28 0 204.13 0 203.53-6.95 198.33-6.95 197.83 0ZM200.58-35.65L198.98-13.8 202.88-13.8 200.98-35.65 200.58-35.65ZM223.28 0L214.88 0 214.88-42.95 223.73-42.95 227.68-22.4 227.68-42.95 235.98-42.95 235.98 0 227.58 0 223.28-21.5 223.28 0ZM249.78 0.4Q245.08 0.4 242.25-2.55 239.43-5.5 239.43-10.65L239.43-10.65 239.43-30.45Q239.43-36.85 241.98-40.1 244.53-43.35 249.98-43.35L249.98-43.35Q254.73-43.35 257.63-40.75 260.53-38.15 260.53-33.25L260.53-33.25 260.53-25.85 251.98-25.85 251.98-32.2Q251.98-34.05 251.53-34.75 251.08-35.45 249.98-35.45L249.98-35.45Q248.83-35.45 248.4-34.65 247.98-33.85 247.98-32.3L247.98-32.3 247.98-10.75Q247.98-9.05 248.48-8.28 248.98-7.5 249.98-7.5L249.98-7.5Q251.98-7.5 251.98-10.75L251.98-10.75 251.98-18.5 260.63-18.5 260.63-10.4Q260.63 0.4 249.78 0.4L249.78 0.4ZM281.22 0L263.47 0 263.47-42.95 280.67-42.95 280.67-34.65 272.22-34.65 272.22-26.3 280.32-26.3 280.32-18.2 272.22-18.2 272.22-8.35 281.22-8.35 281.22 0Z" fill="#ffffff" data-fill-palette-color="secondary"></path></g></svg></g></svg></g><g transform="matrix(1,0,0,1,0,76.21257475146979)"><svg viewBox="0 0 232.20979199999994 22.354840461022143" height="22.354840461022143" width="232.20979199999994"><g transform="matrix(1,0,0,1,0,0)"><svg width="232.20979199999994" viewBox="2.25 -37.7 521.39 50.2" height="22.354840461022143" data-palette-color="#ffffff"><path d="M27.4 0L24.1-9.25 8.7-9.25 5.5 0 2.25 0 14.9-35 17.95-35 31.05 0 27.4 0ZM16.25-31.2L9.55-11.75 23.2-11.75 16.25-31.2ZM49.9-16.4L49.65-21.65Q47.6-22.3 45.45-22.3L45.45-22.3Q41.1-22.3 38.47-19.5 35.85-16.7 35.85-11.6L35.85-11.6Q35.85-2.7 44.1-2.7L44.1-2.7Q47.4-2.7 50.9-3.8L50.9-3.8Q51.6-4 51.75-4.1L51.75-4.1 52.55-1.4Q50.8-0.35 46.2 0.1L46.2 0.1Q44.9 0.2 43.45 0.2L43.45 0.2Q39.2 0.2 36.45-1.9L36.45-1.9Q32.6-4.8 32.6-11.45 32.6-18.1 36.17-21.68 39.75-25.25 45.4-25.25L45.4-25.25Q47.2-25.25 49.22-24.78 51.25-24.3 52.35-23.3L52.35-23.3 52.35-16.75 49.9-16.4ZM73.5-16.4L73.25-21.65Q71.19-22.3 69.05-22.3L69.05-22.3Q64.69-22.3 62.07-19.5 59.45-16.7 59.45-11.6L59.45-11.6Q59.45-2.7 67.69-2.7L67.69-2.7Q71-2.7 74.5-3.8L74.5-3.8Q75.19-4 75.34-4.1L75.34-4.1 76.15-1.4Q74.4-0.35 69.8 0.1L69.8 0.1Q68.5 0.2 67.05 0.2L67.05 0.2Q62.8 0.2 60.05-1.9L60.05-1.9Q56.2-4.8 56.2-11.45 56.2-18.1 59.77-21.68 63.34-25.25 69-25.25L69-25.25Q70.8-25.25 72.82-24.78 74.84-24.3 75.94-23.3L75.94-23.3 75.94-16.75 73.5-16.4ZM83.29-12.3L83.29-11.5Q83.29-2.7 91.69-2.7L91.69-2.7Q95.24-2.7 98.19-3.65L98.19-3.65Q98.94-3.9 99.24-4.05L99.24-4.05 99.99-1.4Q98.24-0.35 93.64 0.1L93.64 0.1Q92.34 0.2 90.89 0.2L90.89 0.2Q86.69 0.2 83.89-1.9L83.89-1.9Q80.04-4.75 80.04-11.4 80.04-18.05 83.52-21.63 86.99-25.2 91.94-25.2 96.89-25.2 99.39-22L99.39-22Q101.29-19.45 101.29-15.25L101.29-15.25Q101.29-14.25 101.19-13.15L101.19-13.15 83.34-13.15Q83.29-12.75 83.29-12.3L83.29-12.3ZM92.14-22.1L92.14-22.1Q89.04-22.1 86.84-20.23 84.64-18.35 83.79-15.4L83.79-15.4 98.34-15.4Q98.09-20.95 94.04-21.85L94.04-21.85Q93.14-22.1 92.14-22.1ZM121.09-24.5L120.29-21.7Q118.49-22.3 115.39-22.3 112.29-22.3 110.59-21.2 108.89-20.1 108.89-18.48 108.89-16.85 109.89-16.1 110.89-15.35 112.39-14.83 113.89-14.3 115.67-13.8 117.44-13.3 118.94-12.5L118.94-12.5Q122.44-10.7 122.44-7.15 122.44-3.6 120.02-1.7 117.59 0.2 112.94 0.2L112.94 0.2Q110.59 0.2 108.42-0.28 106.24-0.75 105.09-1.6L105.09-1.6 106.19-4.25Q107.34-3.25 110.84-2.8L110.84-2.8Q111.94-2.65 113.09-2.65L113.09-2.65Q115.69-2.65 117.44-3.73 119.19-4.8 119.19-7L119.19-7Q119.19-8.5 118.19-9.35 117.19-10.2 115.69-10.78 114.19-11.35 112.42-11.8 110.64-12.25 109.14-12.98 107.64-13.7 106.64-14.88 105.64-16.05 105.64-18.05L105.64-18.05Q105.64-21.3 108.14-23.25 110.64-25.2 114.84-25.2L114.84-25.2Q115.89-25.2 116.99-25.08 118.09-24.95 118.99-24.85L118.99-24.85 121.09-24.5ZM141.59-24.5L140.79-21.7Q138.99-22.3 135.89-22.3 132.79-22.3 131.09-21.2 129.39-20.1 129.39-18.48 129.39-16.85 130.39-16.1 131.39-15.35 132.89-14.83 134.39-14.3 136.16-13.8 137.94-13.3 139.44-12.5L139.44-12.5Q142.94-10.7 142.94-7.15 142.94-3.6 140.51-1.7 138.09 0.2 133.44 0.2L133.44 0.2Q131.09 0.2 128.91-0.28 126.74-0.75 125.59-1.6L125.59-1.6 126.69-4.25Q127.84-3.25 131.34-2.8L131.34-2.8Q132.44-2.65 133.59-2.65L133.59-2.65Q136.19-2.65 137.94-3.73 139.69-4.8 139.69-7L139.69-7Q139.69-8.5 138.69-9.35 137.69-10.2 136.19-10.78 134.69-11.35 132.91-11.8 131.14-12.25 129.64-12.98 128.14-13.7 127.14-14.88 126.14-16.05 126.14-18.05L126.14-18.05Q126.14-21.3 128.64-23.25 131.14-25.2 135.34-25.2L135.34-25.2Q136.39-25.2 137.49-25.08 138.59-24.95 139.49-24.85L139.49-24.85 141.59-24.5ZM147.89-25L151.14-25.25 151.14 0 147.89 0 147.89-25ZM149.39-31.7Q148.39-31.7 147.86-32.35 147.34-33 147.34-34 147.34-35 147.91-35.63 148.49-36.25 149.49-36.25 150.49-36.25 151.11-35.63 151.74-35 151.74-33.9 151.74-32.8 151.06-32.25 150.39-31.7 149.39-31.7ZM160.98-37.5L160.98-23Q163.93-25.45 167.68-25.45L167.68-25.45Q174.08-25.45 176.63-19.8L176.63-19.8Q177.63-17.5 177.63-13.85L177.63-13.85Q177.63-7.1 174.08-3.55 170.53 0 164.88 0L164.88 0Q161.58 0 159.86-0.45 158.13-0.9 157.73-1.15L157.73-1.15 157.73-37.25 160.98-37.5ZM160.98-21.25L160.98-21.25 160.98-2.8Q162.43-2.45 164.13-2.45L164.13-2.45Q169.13-2.45 171.76-5.35 174.38-8.25 174.38-13.5 174.38-18.75 171.73-21L171.73-21Q169.88-22.55 166.93-22.55 163.98-22.55 160.98-21.25ZM182.23-25L185.48-25.25 185.48 0 182.23 0 182.23-25ZM183.73-31.7Q182.73-31.7 182.21-32.35 181.68-33 181.68-34 181.68-35 182.26-35.63 182.83-36.25 183.83-36.25 184.83-36.25 185.46-35.63 186.08-35 186.08-33.9 186.08-32.8 185.41-32.25 184.73-31.7 183.73-31.7ZM195.83 0L192.58 0 192.58-37.25 195.83-37.5 195.83 0ZM201.88-25L205.13-25.25 205.13 0 201.88 0 201.88-25ZM203.38-31.7Q202.38-31.7 201.85-32.35 201.33-33 201.33-34 201.33-35 201.9-35.63 202.48-36.25 203.48-36.25 204.48-36.25 205.1-35.63 205.73-35 205.73-33.9 205.73-32.8 205.05-32.25 204.38-31.7 203.38-31.7ZM222.07-3.6L222.67-0.9Q221.77 0 219.42 0L219.42 0Q216.12 0 214.97-1.7L214.97-1.7Q213.02-3.55 213.02-6.7L213.02-6.7 213.02-22.1 210.22-22.1 210.67-25 213.02-25 213.02-29.95 216.27-30.25 216.27-25 222.07-25 222.07-22.1 216.27-22.1 216.27-5.9Q216.27-3 219.27-3L219.27-3Q220.57-3 222.07-3.6L222.07-3.6ZM233.97 0L225.07-25 228.72-25.25 236.17-2.35 245.77-25 249.27-25 232.67 12.5 229.62 12.5 235.12 0 233.97 0ZM280.17-3.6L280.77-0.9Q279.87 0 277.52 0L277.52 0Q274.22 0 273.07-1.7L273.07-1.7Q271.12-3.55 271.12-6.7L271.12-6.7 271.12-22.1 268.32-22.1 268.77-25 271.12-25 271.12-29.95 274.37-30.25 274.37-25 280.17-25 280.17-22.1 274.37-22.1 274.37-5.9Q274.37-3 277.37-3L277.37-3Q278.67-3 280.17-3.6L280.17-3.6ZM284.01-6.4L284.01-6.4Q283.11-8.8 283.11-12L283.11-12Q283.11-18.15 286.56-21.68 290.01-25.2 295.21-25.2L295.21-25.2Q303.36-25.2 305.91-18.6L305.91-18.6Q306.86-16.2 306.86-13L306.86-13Q306.86-6.85 303.41-3.33 299.96 0.2 294.76 0.2L294.76 0.2Q286.61 0.2 284.01-6.4ZM286.36-12.35Q286.36-7.75 288.74-5.23 291.11-2.7 294.86-2.7 298.61-2.7 301.11-5.38 303.61-8.05 303.61-12.65 303.61-17.25 301.26-19.78 298.91-22.3 295.14-22.3 291.36-22.3 288.86-19.63 286.36-16.95 286.36-12.35ZM346.51-35L346.26-32 331.71-32 331.71-18.85 345.21-18.85 344.96-15.85 331.71-15.85 331.71-3 347.51-3 347.26 0 328.31 0 328.31-35 346.51-35ZM353.81-25L353.81-30.9Q353.81-37.7 361.31-37.7L361.31-37.7Q363.26-37.7 364.76-37.3L364.76-37.3 364.26-34.5Q362.56-34.75 361.38-34.75 360.21-34.75 359.26-34.35L359.26-34.35Q357.06-33.35 357.06-29.75L357.06-29.75 357.06-25 363.26-25 363.26-22.1 357.06-22.1 357.06 0 353.81 0 353.81-22.1 351.01-22.1 351.46-25 353.81-25ZM368.75-25L368.75-30.9Q368.75-37.7 376.25-37.7L376.25-37.7Q378.2-37.7 379.7-37.3L379.7-37.3 379.2-34.5Q377.5-34.75 376.33-34.75 375.15-34.75 374.2-34.35L374.2-34.35Q372-33.35 372-29.75L372-29.75 372-25 378.2-25 378.2-22.1 372-22.1 372 0 368.75 0 368.75-22.1 365.95-22.1 366.4-25 368.75-25ZM382.95-25L386.2-25.25 386.2 0 382.95 0 382.95-25ZM384.45-31.7Q383.45-31.7 382.93-32.35 382.4-33 382.4-34 382.4-35 382.98-35.63 383.55-36.25 384.55-36.25 385.55-36.25 386.18-35.63 386.8-35 386.8-33.9 386.8-32.8 386.13-32.25 385.45-31.7 384.45-31.7ZM408.7-16.4L408.45-21.65Q406.4-22.3 404.25-22.3L404.25-22.3Q399.9-22.3 397.27-19.5 394.65-16.7 394.65-11.6L394.65-11.6Q394.65-2.7 402.9-2.7L402.9-2.7Q406.2-2.7 409.7-3.8L409.7-3.8Q410.4-4 410.55-4.1L410.55-4.1 411.35-1.4Q409.6-0.35 405 0.1L405 0.1Q403.7 0.2 402.25 0.2L402.25 0.2Q398 0.2 395.25-1.9L395.25-1.9Q391.4-4.8 391.4-11.45 391.4-18.1 394.97-21.68 398.55-25.25 404.2-25.25L404.2-25.25Q406-25.25 408.02-24.78 410.05-24.3 411.15-23.3L411.15-23.3 411.15-16.75 408.7-16.4ZM416.9-25L420.15-25.25 420.15 0 416.9 0 416.9-25ZM418.4-31.7Q417.4-31.7 416.87-32.35 416.35-33 416.35-34 416.35-35 416.92-35.63 417.5-36.25 418.5-36.25 419.5-36.25 420.12-35.63 420.75-35 420.75-33.9 420.75-32.8 420.07-32.25 419.4-31.7 418.4-31.7ZM428.84-12.3L428.84-11.5Q428.84-2.7 437.24-2.7L437.24-2.7Q440.79-2.7 443.74-3.65L443.74-3.65Q444.49-3.9 444.79-4.05L444.79-4.05 445.54-1.4Q443.79-0.35 439.19 0.1L439.19 0.1Q437.89 0.2 436.44 0.2L436.44 0.2Q432.24 0.2 429.44-1.9L429.44-1.9Q425.59-4.75 425.59-11.4 425.59-18.05 429.07-21.63 432.54-25.2 437.49-25.2 442.44-25.2 444.94-22L444.94-22Q446.84-19.45 446.84-15.25L446.84-15.25Q446.84-14.25 446.74-13.15L446.74-13.15 428.89-13.15Q428.84-12.75 428.84-12.3L428.84-12.3ZM437.69-22.1L437.69-22.1Q434.59-22.1 432.39-20.23 430.19-18.35 429.34-15.4L429.34-15.4 443.89-15.4Q443.64-20.95 439.59-21.85L439.59-21.85Q438.69-22.1 437.69-22.1ZM454.39-25.25L454.39-22.25Q458.14-25 461.49-25.15L461.49-25.15Q464.54-25.15 466.19-24.4 467.84-23.65 468.92-22.28 469.99-20.9 469.99-18.4L469.99-18.4 469.99 0 466.74 0 466.74-17.55Q466.74-19.4 465.94-20.4L465.94-20.4Q464.34-22.25 461.04-22.25L461.04-22.25Q457.89-22.1 454.39-20.2L454.39-20.2 454.39 0 451.14 0 451.14-25 454.39-25.25ZM492.79-16.4L492.54-21.65Q490.49-22.3 488.34-22.3L488.34-22.3Q483.99-22.3 481.36-19.5 478.74-16.7 478.74-11.6L478.74-11.6Q478.74-2.7 486.99-2.7L486.99-2.7Q490.29-2.7 493.79-3.8L493.79-3.8Q494.49-4 494.64-4.1L494.64-4.1 495.44-1.4Q493.69-0.35 489.09 0.1L489.09 0.1Q487.79 0.2 486.34 0.2L486.34 0.2Q482.09 0.2 479.34-1.9L479.34-1.9Q475.49-4.8 475.49-11.45 475.49-18.1 479.06-21.68 482.64-25.25 488.29-25.25L488.29-25.25Q490.09-25.25 492.11-24.78 494.14-24.3 495.24-23.3L495.24-23.3 495.24-16.75 492.79-16.4ZM508.34 0L499.44-25 503.09-25.25 510.54-2.35 520.14-25 523.64-25 507.04 12.5 503.99 12.5 509.49 0 508.34 0Z" opacity="1" transform="matrix(1,0,0,1,0,0)" fill="#ffffff" class="undefined-text-1" data-fill-palette-color="secondary" id="text-1"></path></svg></g></svg></g></svg></g></svg></g><g><svg viewBox="0 0 136.26157268540098 136.22016782366387" height="136.22016782366387" width="136.26157268540098"><g><svg xmlns="http://www.w3.org/2000/svg" xmlns:xlink="http://www.w3.org/1999/xlink" version="1.1" x="0" y="0" viewBox="3.9939005367790923 4 66.01005801981955 65.99" style="enable-background:new 0 0 74 74;" xml:space="preserve" height="136.22016782366387" width="136.26157268540098" class="icon-icon-0" fill="#ffffff" data-fill-palette-color="accent" id="icon-0"><g fill="#ffffff" data-fill-palette-color="accent"><path d="M69.88 46.58c-0.3-1-1.21-2.24-3.84-2.46-0.76-0.07-1.54-0.01-2.32 0.16-2.8 0.6-6.02 2.3-9.43 4.09-0.8 0.42-1.62 0.86-2.46 1.29-0.43 0.22-0.78 0.38-1.13 0.5-2.85 1.04-6.15 1.38-9.86 1.03 2.54-0.77 4.68-1.53 6.11-2.35 2.3-1.43 3.4-3.46 3.27-6.04-0.04-0.81-0.43-1.58-1.06-2.1-0.64-0.54-1.48-0.78-2.32-0.68-2.46 0.31-4.95 0.71-7.36 1.09-4.55 0.73-8.85 1.41-12.29 1.41-0.41 0-0.81 0-1.22 0.03-4.06 0.22-6.73 0.56-8.58 1.1-3.67 0.85-9.44 7.64-13.25 13.89-0.25 0.4-0.17 0.93 0.17 1.25l11.67 10.93c0.19 0.18 0.44 0.27 0.68 0.27 0.26 0 0.52-0.1 0.72-0.31 2.29-2.38 4.72-4.24 7.2-5.53 1.32-0.69 2.84-1.05 4.38-1.05 4.86 0 9.92-0.19 15.04-0.54 1.97-0.13 3.88-0.53 5.66-1.17 7.22-2.59 14.24-6.8 19.24-11.56C69.85 48.96 70.22 47.7 69.88 46.58zM67.53 48.4C62.73 52.97 55.97 57.03 49 59.52c-1.61 0.58-3.34 0.93-5.13 1.05-5.08 0.35-10.09 0.53-14.91 0.53-1.86 0-3.69 0.44-5.3 1.28-2.43 1.26-4.79 3.01-7.03 5.22L6.28 57.9c3.93-6.26 9.03-11.7 11.62-12.31 1.75-0.5 4.27-0.82 8.18-1.04 0.37-0.02 0.74-0.02 1.11-0.02 3.6 0 7.97-0.7 12.6-1.44 2.39-0.38 4.86-0.78 7.29-1.08 0.29-0.04 0.57 0.05 0.79 0.23 0.21 0.17 0.33 0.41 0.34 0.67 0.09 1.84-0.65 3.19-2.3 4.22-1.96 1.11-5.83 2.23-9.96 3.38-0.44 0.12-0.75 0.53-0.73 0.99 0.01 0.46 0.34 0.85 0.79 0.95 5.9 1.29 11.07 1.16 15.35-0.41 0.42-0.15 0.86-0.35 1.36-0.61 0.84-0.43 1.67-0.87 2.48-1.29 3.29-1.73 6.39-3.37 8.92-3.91 0.6-0.13 1.18-0.17 1.74-0.12 0.83 0.07 1.88 0.31 2.09 1.04C68.08 47.55 67.91 48.04 67.53 48.4z" fill="#ffffff" data-fill-palette-color="accent"></path><path d="M21.6 23.26l2.25 0.8 1.02 2.46-1.03 2.16c-0.18 0.38-0.1 0.84 0.2 1.14l3.19 3.19c0.3 0.3 0.75 0.38 1.14 0.2l2.16-1.03L33 33.2l0.8 2.25c0.14 0.4 0.52 0.67 0.94 0.67h4.51c0.42 0 0.8-0.27 0.94-0.67L41 33.2l2.46-1.02 2.16 1.03c0.38 0.18 0.84 0.1 1.14-0.2l3.19-3.19c0.3-0.3 0.38-0.75 0.2-1.14l-1.03-2.16 1.02-2.46 2.25-0.8c0.4-0.14 0.67-0.52 0.67-0.94V17.8c0-0.42-0.27-0.8-0.67-0.94l-2.25-0.8-1.02-2.46 1.03-2.16c0.18-0.38 0.1-0.84-0.2-1.14l-3.19-3.19c-0.3-0.3-0.75-0.38-1.14-0.2l-2.16 1.03L41 6.92l-0.8-2.25C40.06 4.27 39.68 4 39.26 4h-4.51c-0.42 0-0.8 0.27-0.94 0.67L33 6.92l-2.46 1.02-2.16-1.03c-0.38-0.18-0.84-0.1-1.14 0.2l-3.19 3.19c-0.3 0.3-0.38 0.75-0.2 1.14l1.03 2.16-1.02 2.46-2.25 0.8c-0.4 0.14-0.67 0.52-0.67 0.94v4.51C20.94 22.74 21.2 23.12 21.6 23.26zM22.94 18.51l2.01-0.71c0.27-0.09 0.48-0.3 0.59-0.56l1.36-3.29c0.11-0.26 0.1-0.56-0.02-0.81l-0.91-1.92 2.19-2.19 1.92 0.91c0.26 0.12 0.55 0.13 0.81 0.02l3.29-1.36c0.26-0.11 0.46-0.32 0.56-0.59L35.45 6h3.1l0.71 2.01c0.09 0.27 0.3 0.48 0.56 0.59l3.29 1.36c0.26 0.11 0.56 0.1 0.81-0.02l1.92-0.91 2.19 2.19-0.91 1.92C47 13.39 47 13.69 47.1 13.95l1.36 3.29c0.11 0.26 0.32 0.46 0.59 0.56l2.01 0.71v3.1l-2.01 0.71c-0.27 0.09-0.48 0.3-0.59 0.56l-1.36 3.29c-0.11 0.26-0.1 0.56 0.02 0.81l0.91 1.92-2.19 2.19-1.92-0.91c-0.26-0.12-0.55-0.13-0.81-0.02l-3.29 1.36c-0.26 0.11-0.46 0.32-0.56 0.59l-0.71 2.01h-3.1l-0.71-2.01c-0.09-0.27-0.3-0.48-0.56-0.59l-3.29-1.36c-0.26-0.11-0.56-0.1-0.81 0.02l-1.92 0.91-2.19-2.19 0.91-1.92c0.12-0.26 0.13-0.55 0.02-0.81l-1.36-3.29c-0.11-0.26-0.32-0.47-0.59-0.56l-2.01-0.71V18.51z" fill="#ffffff" data-fill-palette-color="accent"></path><path d="M37 27.46c4.08 0 7.4-3.32 7.4-7.4 0-4.08-3.32-7.4-7.4-7.4-4.08 0-7.4 3.32-7.4 7.4C29.6 24.14 32.92 27.46 37 27.46zM37 14.66c2.98 0 5.4 2.42 5.4 5.4s-2.42 5.4-5.4 5.4-5.4-2.42-5.4-5.4S34.02 14.66 37 14.66z" fill="#ffffff" data-fill-palette-color="accent"></path></g></svg><g></g></g></svg></g></svg></g></svg></g></svg><rect width="395.52" height="95.11429096129997" fill="transparent" stroke="transparent"></rect></g></svg></g></svg>