<svg id="visual" viewBox="0 0 900 600" width="900" height="600" xmlns="http://www.w3.org/2000/svg" xmlns:xlink="http://www.w3.org/1999/xlink" version="1.1"><g stroke-width="1" stroke-linejoin="bevel"><path d="M518 296L523 407L633 327Z" fill="#00101c" stroke="#00101c"></path><path d="M523 407L621 403L633 327Z" fill="#277297" stroke="#277297"></path><path d="M737 370L686 302L633 327Z" fill="#205a7a" stroke="#205a7a"></path><path d="M633 327L605 176L518 296Z" fill="#081a28" stroke="#081a28"></path><path d="M398 371L504 468L523 407Z" fill="#15384f" stroke="#15384f"></path><path d="M523 407L563 487L621 403Z" fill="#277297" stroke="#277297"></path><path d="M504 468L563 487L523 407Z" fill="#15384f" stroke="#15384f"></path><path d="M518 296L398 371L523 407Z" fill="#112e42" stroke="#112e42"></path><path d="M710 512L737 370L621 403Z" fill="#205a7a" stroke="#205a7a"></path><path d="M621 403L737 370L633 327Z" fill="#081a28" stroke="#081a28"></path><path d="M707 178L605 176L686 302Z" fill="#15384f" stroke="#15384f"></path><path d="M686 302L605 176L633 327Z" fill="#15384f" stroke="#15384f"></path><path d="M518 296L380 286L398 371Z" fill="#081a28" stroke="#081a28"></path><path d="M605 176L480 183L518 296Z" fill="#081a28" stroke="#081a28"></path><path d="M430 192L380 286L518 296Z" fill="#277297" stroke="#277297"></path><path d="M480 183L430 192L518 296Z" fill="#19435d" stroke="#19435d"></path><path d="M398 371L403 488L504 468Z" fill="#19435d" stroke="#19435d"></path><path d="M504 468L522 600L563 487Z" fill="#297ea6" stroke="#297ea6"></path><path d="M327 383L403 488L398 371Z" fill="#1d4e6b" stroke="#1d4e6b"></path><path d="M633 600L710 512L563 487Z" fill="#081a28" stroke="#081a28"></path><path d="M563 487L710 512L621 403Z" fill="#19435d" stroke="#19435d"></path><path d="M798 261L707 178L686 302Z" fill="#297ea6" stroke="#297ea6"></path><path d="M326 307L398 371L380 286Z" fill="#15384f" stroke="#15384f"></path><path d="M326 307L327 383L398 371Z" fill="#19435d" stroke="#19435d"></path><path d="M329 193L326 307L380 286Z" fill="#112e42" stroke="#112e42"></path><path d="M737 370L798 261L686 302Z" fill="#0c2435" stroke="#0c2435"></path><path d="M837 363L798 261L737 370Z" fill="#277297" stroke="#277297"></path><path d="M403 488L522 600L504 468Z" fill="#112e42" stroke="#112e42"></path><path d="M480 183L405 107L430 192Z" fill="#00101c" stroke="#00101c"></path><path d="M605 176L519 98L480 183Z" fill="#0c2435" stroke="#0c2435"></path><path d="M617 63L519 98L605 176Z" fill="#19435d" stroke="#19435d"></path><path d="M522 600L633 600L563 487Z" fill="#297ea6" stroke="#297ea6"></path><path d="M810 476L837 363L737 370Z" fill="#297ea6" stroke="#297ea6"></path><path d="M802 600L810 476L710 512Z" fill="#19435d" stroke="#19435d"></path><path d="M710 512L810 476L737 370Z" fill="#081a28" stroke="#081a28"></path><path d="M633 600L690 600L710 512Z" fill="#0c2435" stroke="#0c2435"></path><path d="M430 192L329 193L380 286Z" fill="#297ea6" stroke="#297ea6"></path><path d="M405 107L329 193L430 192Z" fill="#19435d" stroke="#19435d"></path><path d="M519 98L405 107L480 183Z" fill="#15384f" stroke="#15384f"></path><path d="M705 79L605 176L707 178Z" fill="#1d4e6b" stroke="#1d4e6b"></path><path d="M705 79L617 63L605 176Z" fill="#081a28" stroke="#081a28"></path><path d="M519 98L526 0L405 107Z" fill="#205a7a" stroke="#205a7a"></path><path d="M212 397L311 513L327 383Z" fill="#277297" stroke="#277297"></path><path d="M327 383L311 513L403 488Z" fill="#19435d" stroke="#19435d"></path><path d="M403 488L369 600L522 600Z" fill="#15384f" stroke="#15384f"></path><path d="M214 303L327 383L326 307Z" fill="#19435d" stroke="#19435d"></path><path d="M834 132L705 79L707 178Z" fill="#277297" stroke="#277297"></path><path d="M311 513L369 600L403 488Z" fill="#277297" stroke="#277297"></path><path d="M900 196L830 166L798 261Z" fill="#15384f" stroke="#15384f"></path><path d="M798 261L830 166L707 178Z" fill="#277297" stroke="#277297"></path><path d="M900 460L900 364L837 363Z" fill="#246688" stroke="#246688"></path><path d="M837 363L900 292L798 261Z" fill="#1d4e6b" stroke="#1d4e6b"></path><path d="M900 364L900 292L837 363Z" fill="#205a7a" stroke="#205a7a"></path><path d="M690 600L802 600L710 512Z" fill="#081a28" stroke="#081a28"></path><path d="M810 476L900 460L837 363Z" fill="#112e42" stroke="#112e42"></path><path d="M900 196L834 132L830 166Z" fill="#0c2435" stroke="#0c2435"></path><path d="M830 166L834 132L707 178Z" fill="#081a28" stroke="#081a28"></path><path d="M661 0L580 0L617 63Z" fill="#15384f" stroke="#15384f"></path><path d="M617 63L580 0L519 98Z" fill="#19435d" stroke="#19435d"></path><path d="M661 0L617 63L705 79Z" fill="#19435d" stroke="#19435d"></path><path d="M580 0L526 0L519 98Z" fill="#297ea6" stroke="#297ea6"></path><path d="M900 600L900 460L810 476Z" fill="#0c2435" stroke="#0c2435"></path><path d="M227 171L214 303L329 193Z" fill="#205a7a" stroke="#205a7a"></path><path d="M329 193L214 303L326 307Z" fill="#081a28" stroke="#081a28"></path><path d="M214 303L212 397L327 383Z" fill="#297ea6" stroke="#297ea6"></path><path d="M311 513L292 600L369 600Z" fill="#15384f" stroke="#15384f"></path><path d="M369 0L331 74L405 107Z" fill="#19435d" stroke="#19435d"></path><path d="M405 107L331 74L329 193Z" fill="#205a7a" stroke="#205a7a"></path><path d="M792 0L661 0L705 79Z" fill="#00101c" stroke="#00101c"></path><path d="M900 292L900 196L798 261Z" fill="#297ea6" stroke="#297ea6"></path><path d="M196 496L292 600L311 513Z" fill="#112e42" stroke="#112e42"></path><path d="M331 74L227 171L329 193Z" fill="#297ea6" stroke="#297ea6"></path><path d="M110 420L196 496L212 397Z" fill="#00101c" stroke="#00101c"></path><path d="M212 397L196 496L311 513Z" fill="#297ea6" stroke="#297ea6"></path><path d="M526 0L369 0L405 107Z" fill="#0c2435" stroke="#0c2435"></path><path d="M331 74L165 88L227 171Z" fill="#081a28" stroke="#081a28"></path><path d="M900 73L792 0L834 132Z" fill="#297ea6" stroke="#297ea6"></path><path d="M834 132L792 0L705 79Z" fill="#0c2435" stroke="#0c2435"></path><path d="M802 600L900 600L810 476Z" fill="#277297" stroke="#277297"></path><path d="M900 196L900 73L834 132Z" fill="#297ea6" stroke="#297ea6"></path><path d="M369 0L298 0L331 74Z" fill="#081a28" stroke="#081a28"></path><path d="M227 171L126 293L214 303Z" fill="#277297" stroke="#277297"></path><path d="M214 303L126 293L212 397Z" fill="#277297" stroke="#277297"></path><path d="M134 165L126 293L227 171Z" fill="#1d4e6b" stroke="#1d4e6b"></path><path d="M98 600L183 600L196 496Z" fill="#112e42" stroke="#112e42"></path><path d="M196 496L183 600L292 600Z" fill="#1d4e6b" stroke="#1d4e6b"></path><path d="M126 293L110 420L212 397Z" fill="#112e42" stroke="#112e42"></path><path d="M137 134L134 165L227 171Z" fill="#246688" stroke="#246688"></path><path d="M0 371L87 463L110 420Z" fill="#081a28" stroke="#081a28"></path><path d="M205 0L165 88L331 74Z" fill="#246688" stroke="#246688"></path><path d="M165 88L137 134L227 171Z" fill="#15384f" stroke="#15384f"></path><path d="M900 73L900 0L792 0Z" fill="#277297" stroke="#277297"></path><path d="M0 371L110 420L126 293Z" fill="#00101c" stroke="#00101c"></path><path d="M110 420L87 463L196 496Z" fill="#246688" stroke="#246688"></path><path d="M0 371L126 293L0 267Z" fill="#081a28" stroke="#081a28"></path><path d="M298 0L205 0L331 74Z" fill="#1d4e6b" stroke="#1d4e6b"></path><path d="M0 191L134 165L137 134Z" fill="#246688" stroke="#246688"></path><path d="M87 463L98 600L196 496Z" fill="#205a7a" stroke="#205a7a"></path><path d="M0 267L126 293L0 191Z" fill="#1d4e6b" stroke="#1d4e6b"></path><path d="M87 463L0 538L98 600Z" fill="#081a28" stroke="#081a28"></path><path d="M126 293L134 165L0 191Z" fill="#277297" stroke="#277297"></path><path d="M0 191L137 134L0 72Z" fill="#081a28" stroke="#081a28"></path><path d="M90 0L137 134L165 88Z" fill="#277297" stroke="#277297"></path><path d="M205 0L90 0L165 88Z" fill="#277297" stroke="#277297"></path><path d="M0 371L0 538L87 463Z" fill="#205a7a" stroke="#205a7a"></path><path d="M0 538L0 600L98 600Z" fill="#1d4e6b" stroke="#1d4e6b"></path><path d="M90 0L0 72L137 134Z" fill="#112e42" stroke="#112e42"></path><path d="M90 0L0 0L0 72Z" fill="#081a28" stroke="#081a28"></path></g></svg>